<svg xmlns="http://www.w3.org/2000/svg" viewBox="0 0 384 512"><path fill="#5382a1" d="M277.74 312.9c9.8-6.7 23.4-12.5 23.4-12.5s-38.7 7-77.2 10.2c-47.1 3.9-97.7 4.7-123.1 1.3-60.1-8 33-30.1 33-30.1s-36.1-2.4-80.6 19c-52.5 25.4 130 37 224.5 12.1zm-85.4-32.1c-19-42.7-83.1-80.2 0-145.8C296 .5 242.3 110.4 203.7 139.9c-43.9 33.6-51.2 52.7-27.3 80.2 43.1 50.5 156.7 112.9 174.1 60.7 10.8-32.7-35.8-54-85.4-32.1zm-55.5-142.3c-24.5 14.2-45.9 32.8-86.3 65.9-17.1 14-66.9 43.9-77.4 37.4-4.7-2.9-6.5-10.2-4.9-14.9 1.4-4.2 7.8-11.7 16.9-18.9 4.9-3.9 15.4-10.7 27.5-17.6-6.5-1.6-14.8-4.4-19.5-7 .1-.2.1-.4.2-.6 6.1-1.6 17.2-1.3 31.8 2.6 14.5 3.9 28.4 10.5 38.9 13.6-3.6-6.9-6.5-14.3-8.1-21.9 1.8-.4 3.7-.9 5.5-1.3 4.8 10.3 10.7 20 17.5 28.7 19.2 24.4 43.9 38.9 74.9 33.5-26-44.9-74.1-105.6-38.5-133.5 14.7-11.4 34.9-12.2 53-2.3 22.8 12.5 31.9 32.5 29.2 52.6-2.7 20.1-16.9 31.1-32.6 39.1zm83.8 150.3c-112.9 52-98.9 133.1-206.7 127.5 82.6 32.3 218.8-16.9 208.4-112-4.2-39-43.3-77.2-92.4-79.5 56.6-2.7 124.8 27.8 90.7 64z"/></svg>
